<?xml version="1.0" encoding="UTF-8"?>
<svg width="1290" height="2796" viewBox="0 0 1290 2796" fill="none" xmlns="http://www.w3.org/2000/svg">
  <rect width="1290" height="2796" fill="#264E60"/>
  <g transform="translate(133,898) scale(0.8)">
    <path d="M512 760C512 760 240 610 240 440C240 340 320 280 400 280C460 280 512 320 512 360C512 320 564 280 624 280C704 280 784 340 784 440C784 610 512 760 512 760Z"
          fill="#FFFFFF"/>
    <rect x="560" y="240" width="280" height="280" rx="40" fill="#FFFFFF"/>
    <rect x="620" y="220" width="28" height="48" rx="14" fill="#FFFFFF"/>
    <rect x="752" y="220" width="28" height="48" rx="14" fill="#FFFFFF"/>
    <path d="M640 402 L700 462 L800 342" stroke="#264E60" stroke-width="36" stroke-linecap="round" stroke-linejoin="round"/>
  </g>
</svg>
